<svg id="Layer_1" data-name="Layer 1" xmlns="http://www.w3.org/2000/svg" viewBox="0 0 472.799 201.41">
  <defs>
    <style>
      .cls-1 {
        fill: #8e0d39;
      }

      .cls-2 {
        fill: #ad6277;
      }

      .cls-3 {
        fill: #ac5f75;
      }

      .cls-4 {
        fill: #ffb60b;
      }

      .cls-5 {
        fill: #fff;
      }

      .cls-6 {
        fill: #bd592a;
      }

      .cls-7 {
        fill: #be5c29;
      }
    </style>
  </defs>
  <title>213e1468-fe55-4476-b4cd-d73286978e46</title>
  <g>
    <path class="cls-1" d="M339.4,201.41h-1.8c-2.411-.432-4.864-0.32-7.29-0.58a58.6,58.6,0,0,1-17.284-4.761,44.227,44.227,0,0,1-15.477-11.381,42.653,42.653,0,0,1-3.909-5.313c-0.713-1.108-1.1-1.157-1.892-.106-7.731,10.188-18.487,15.316-30.54,18.235a120.258,120.258,0,0,1-19.123,2.809c-8.937.689-17.888,0.643-26.839,0.645q-37.319.008-74.639,0c-2.2,0-2.424-.144-2.969-2.3q-4.02-15.94-7.983-31.894c-0.615-2.461-.676-2.518-3.243-2.519q-26.356-.006-52.713,0c-2.564,0-2.685.066-3.268,2.5q-3.807,15.912-7.615,31.823c-0.5,2.105-.82,2.388-3.061,2.388H2.685c-2.7,0-3.062-.452-2.4-3.138,3.224-13.018,6.559-26.007,9.821-39.015Q23.327,106.093,36.5,53.369c1.686-6.7,3.429-13.379,5.049-20.091a25.14,25.14,0,0,0-1.1-15.9A20.251,20.251,0,0,0,36.6,11.511C34.1,8.78,31.664,6,29.087,3.339a4.278,4.278,0,0,1-.68-0.8A1.563,1.563,0,0,1,29.325.147,4.981,4.981,0,0,1,30.962.009Q87.88,0.007,144.8,0a14.281,14.281,0,0,1,12.178,5.893,11.505,11.505,0,0,1,1.86,4.068c1.776,6.931,3.576,13.857,5.348,20.789a2.461,2.461,0,0,0,.654,1.574c1.084-1.465,1.667-3.178,2.585-4.7a46.981,46.981,0,0,1,18.784-17.433c8.562-4.52,17.791-6.868,27.295-8.3A181.976,181.976,0,0,1,242.967.143c6.657,0.08,13.317.1,19.973-.01,5.5-.087,11.006-0.169,16.508-0.116,24.125,0.234,48.25.106,72.375,0.142,2.273,0,2.6.328,2.663,2.595,0.022,0.851.011,1.7,0.011,2.553q0,66.9-.009,133.809a23.4,23.4,0,0,0,.528,5.211,12.307,12.307,0,0,0,8.44,9.547,22.428,22.428,0,0,0,19.478-2.223c4.824-2.924,7.15-7.4,7.15-13.06q0-43.7,0-87.4,0-23.878,0-47.757c0-3.422.012-3.422,3.4-3.422h61.423c2.358,0,2.556.194,2.606,2.561,0.019,0.9.009,1.8,0.009,2.7q0,83.574-.045,167.149a23.854,23.854,0,0,0,6.8,16.937c2.558,2.743,5.111,5.488,7.617,8.278,0.59,0.657,1.148,1.322.778,2.263-0.408,1.038-1.353,1.059-2.273,1.06q-12.99,0-25.981,0-17.646,0-35.292,0a14.638,14.638,0,0,1-8.165-2.067,14.485,14.485,0,0,1-6.053-7.767c-0.481-1.421-.937-2.852-1.4-4.281-0.288-.889-0.639-0.874-1.188-0.175-6.338,8.076-15.067,11.982-24.8,14.011-2.876.6-5.872,0.38-8.81,0.579a2.489,2.489,0,0,0-1.3.148h-2.1a1.668,1.668,0,0,0-1.5,0H341.2A2.366,2.366,0,0,0,339.4,201.41Z" transform="translate(0 0)"/>
    <path class="cls-2" d="M339.4,201.41a1.353,1.353,0,0,1,1.8,0h-1.8Z" transform="translate(0 0)"/>
    <path class="cls-3" d="M353.818,201.41a1.032,1.032,0,0,1,1.5,0h-1.5Z" transform="translate(0 0)"/>
    <path class="cls-4" d="M306.949,106.733c3.168,0.822,6.333,1.652,9.5,2.464q14.216,3.642,28.436,7.27c1.054,0.269,1.957.723,1.8,1.989-0.169,1.318-1.132,1.612-2.321,1.535q-10.625-.694-21.252-1.36c-5.982-.377-11.964-0.742-18.21-1.129a3.689,3.689,0,0,0,1.688,1.014q16.745,7.336,33.506,14.636c1.072,0.466,1.955,1.035,1.555,2.295-0.41,1.291-1.463,1.386-2.7,1.107q-18.627-4.215-37.268-8.363a1.333,1.333,0,0,1-1.353-1.09c-2.867-13.786-11.2-23.62-22.673-31.139-8.834-5.79-18.548-9.753-28.351-13.522-7.224-2.777-14.546-5.316-21.539-8.666a40.4,40.4,0,0,1-10.79-6.969c-5.791-5.548-6.523-13.917-1.668-19.761,2.983-3.592,7.089-5.315,11.5-6.3,10.556-2.348,20.969-1.307,31.263,1.607a51.34,51.34,0,0,1,5.652,1.97,1.432,1.432,0,0,0,1.987-.553q9.529-11.793,19.115-23.54c1.578-1.941,3.183-3.862,4.735-5.823a1.93,1.93,0,0,1,2.869-.586c1.04,0.719.739,1.678,0.247,2.663q-7.743,15.489-15.438,31a2.071,2.071,0,0,0-.416,1.418c2.629-2.267,5.152-4.434,7.666-6.612q10.439-9.04,20.873-18.086c1.3-1.128,2.505-1.171,3.23-.11a1.749,1.749,0,0,1-.216,2.29q-11.051,14.594-22.062,29.265c0.785,0.246,1.235-.36,1.748-0.668q15.48-9.328,30.935-18.7a4.673,4.673,0,0,1,1.044-.581,1.773,1.773,0,0,1,2.238.709,1.621,1.621,0,0,1-.4,2.248q-13.843,12.763-27.636,25.58a0.367,0.367,0,0,0-.033.147,4.107,4.107,0,0,0,2.111-.641q16.913-6.724,33.807-13.5c0.278-.111.555-0.227,0.834-0.337a1.75,1.75,0,0,1,2.434.79c0.558,1.041.079,1.774-.843,2.37-4.116,2.66-8.213,5.347-12.32,8.02Q311,67.11,301.756,73.125a1.573,1.573,0,0,0-1,.992c3.909-.869,7.75-1.721,11.59-2.578,8.869-1.979,17.741-3.945,26.6-5.958,1.224-.278,2.285-0.243,2.712,1.063,0.447,1.368-.55,1.9-1.65,2.379q-16.764,7.288-33.5,14.634a3.048,3.048,0,0,0-1.471.85,18.4,18.4,0,0,0,3.6-.135c6.885-.446,13.772-0.855,20.658-1.287,4.192-.263,8.382-0.547,12.574-0.814,0.849-.054,1.7-0.057,2.549-0.112,1.174-.075,2.182.205,2.32,1.536,0.126,1.216-.724,1.69-1.809,1.964q-10.745,2.713-21.476,5.485-7.616,1.952-15.231,3.913a3.32,3.32,0,0,0-1.24.548l13.6,1.285q10.6,1,21.2,2.007c1.543,0.145,3.086.291,4.632,0.4,1.138,0.082,1.981.512,1.976,1.771s-0.886,1.675-2,1.777q-16.653,1.527-33.306,3.063c-2.035.188-4.067,0.422-6.1,0.635Z" transform="translate(0 0)"/>
    <path class="cls-4" d="M167.271,84.274a4.076,4.076,0,0,1,.586.666c5.383,9.731,13.677,16.3,23.287,21.435,8.58,4.583,17.738,7.748,26.893,10.918,7.737,2.679,15.558,5.154,22.8,9.062,4.223,2.278,8.116,4.991,10.63,9.231,3.807,6.422,3.674,15.144-4.291,20.627-4.957,3.412-10.576,4.857-16.451,5.518a43.178,43.178,0,0,1-23.258-3.586,1.128,1.128,0,0,0-1.608.431q-11.7,14.473-23.437,28.92c-0.6.742-1.183,1.326-2.249,1.058-1.377-.345-1.8-1.341-1.1-2.762q4.537-9.127,9.092-18.246,3.208-6.437,6.405-12.879a1.351,1.351,0,0,0,.232-1.311c-2.381,2.055-4.7,4.052-7.013,6.056q-10.551,9.139-21.1,18.281c-0.227.2-.456,0.391-0.694,0.574a1.8,1.8,0,0,1-2.572-.1,1.632,1.632,0,0,1-.013-2.406q6.126-8.068,12.21-16.169c3.311-4.394,6.616-8.793,10.02-13.317a2.238,2.238,0,0,0-1.5.6q-15.727,9.5-31.446,19.011a2.373,2.373,0,0,1-1.938.606,1.852,1.852,0,0,1-1.4-1.233,1.8,1.8,0,0,1,.694-1.973q9.332-8.587,18.628-17.213c2.924-2.707,5.837-5.425,8.6-8.414-1.469.576-2.94,1.144-4.406,1.73q-15.858,6.333-31.711,12.68c-1.107.444-2.078,0.465-2.692-.694-0.644-1.215.073-1.9,1.057-2.537q15.043-9.749,30.056-19.544a3.181,3.181,0,0,0,1.4-1.287c-2.329.5-4.4,0.921-6.463,1.384q-15.858,3.555-31.708,7.139c-1.162.264-2.163,0.161-2.6-1.02-0.457-1.235.3-1.879,1.413-2.362q17.523-7.6,35.02-15.267c-0.083-.729-0.569-0.326-0.912-0.325l-27.987,1.766c-3.443.217-6.887,0.423-10.329,0.651-1.211.08-2.16-.32-2.3-1.592-0.132-1.209.73-1.681,1.824-1.96q18.645-4.756,37.277-9.565a0.783,0.783,0,0,0,.558-0.369c-3-.3-6-0.6-9.007-0.889q-12.316-1.169-24.633-2.321c-1.792-.168-3.588-0.288-5.38-0.456-1.141-.107-2.311-0.317-2.3-1.8,0.012-1.439,1.046-1.656,2.27-1.77q18.44-1.716,36.873-3.508c0.548-.052,1.1-0.062,1.649-0.091,0.251-.179.255-0.355-0.006-0.528Q145.464,90.3,126.683,85.5a1.661,1.661,0,0,1-1.5-2.013c0.17-1.211,1.072-1.457,2.116-1.4q8.98,0.53,17.959,1.075c5.736,0.357,11.471.741,17.206,1.116,1.1,0.072,2.191.172,3.288,0.233a1.6,1.6,0,0,0,1.542-.268Z" transform="translate(0 0)"/>
    <path class="cls-5" d="M100.165,45.7q3.485,13.859,6.955,27.671,6.543,26.184,13.093,52.367c0.3,1.194.106,1.434-1.088,1.43q-19.068-.053-38.137,0c-1.169,0-1.311-.367-1.062-1.366Q86.6,99.126,93.242,72.438,96.479,59.452,99.7,46.464A0.844,0.844,0,0,1,100.165,45.7Z" transform="translate(0 0)"/>
    <path class="cls-4" d="M167.294,84.25a60.649,60.649,0,0,1-7.715-3.2c-9.261-4-18.492-8.076-27.745-12.1-1.1-.477-2.083-1.007-1.618-2.39,0.449-1.335,1.535-1.31,2.729-1.041q14.466,3.258,28.944,6.459a1.707,1.707,0,0,1,1.574,1.457,43.388,43.388,0,0,0,3.47,9.711,1.614,1.614,0,0,1,.336,1.123Z" transform="translate(0 0)"/>
    <path class="cls-4" d="M300.606,128.285c5.576,3.621,10.848,7.041,16.115,10.467,5.233,3.4,10.448,6.833,15.7,10.2,1,0.64,1.484,1.365.919,2.45a1.787,1.787,0,0,1-2.555.751q-14.3-5.73-28.621-11.415a0.894,0.894,0,0,1-.689-0.973A62.187,62.187,0,0,0,300.606,128.285Z" transform="translate(0 0)"/>
    <path class="cls-4" d="M301.476,144.568c6.918,6.412,13.65,12.656,20.39,18.89a1.585,1.585,0,0,1,.278,2.381,1.863,1.863,0,0,1-2.679.3q-5.441-3.3-10.891-6.582-3.651-2.208-7.3-4.421a1.185,1.185,0,0,1-.907-1.2C300.744,150.887,301.092,147.833,301.476,144.568Z" transform="translate(0 0)"/>
    <path class="cls-4" d="M162.362,67.992c-2.681-1.737-5.063-3.274-7.439-4.82-5.155-3.355-10.3-6.725-15.466-10.061-0.952-.615-1.566-1.332-1-2.456,0.559-1.1,1.563-1.144,2.589-.737q10.021,3.975,20.031,7.976a0.972,0.972,0,0,1,.8,1.053A72.506,72.506,0,0,0,162.362,67.992Z" transform="translate(0 0)"/>
    <path class="cls-4" d="M162.282,49.966c-1.456-1.346-2.728-2.518-4-3.693-2.75-2.547-5.48-5.116-8.258-7.632a1.59,1.59,0,0,1-.371-2.357,1.725,1.725,0,0,1,2.4-.532c3.658,2.155,7.267,4.392,10.914,6.564a1.083,1.083,0,0,1,.415,1.406C163.029,45.682,162.69,47.644,162.282,49.966Z" transform="translate(0 0)"/>
    <path class="cls-4" d="M298.55,162.789c2.033,2.686,3.924,5.178,5.809,7.675,1.325,1.756,2.611,3.541,3.972,5.268a1.692,1.692,0,0,1-.028,2.522,1.825,1.825,0,0,1-2.688-.1q-3.687-3.186-7.364-6.385c-2.248-1.964-2.233-1.969-1.213-4.717C297.535,165.72,297.993,164.368,298.55,162.789Z" transform="translate(0 0)"/>
    <path class="cls-6" d="M165.733,117.55a2.194,2.194,0,0,1,1.524-.171,0.589,0.589,0,0,1-.612.5A1.6,1.6,0,0,0,165.733,117.55Z" transform="translate(0 0)"/>
    <path class="cls-7" d="M164.242,95.116c0.337-.006.833,0.061,0.806,0.357-0.039.419-.508,0.169-0.8,0.171Z" transform="translate(0 0)"/>
  </g>
</svg>
