<svg id="Layer_1" data-name="Layer 1" xmlns="http://www.w3.org/2000/svg" viewBox="0 0 607.824 187.064">
  <defs>
    <style>
      .cls-1 {
        fill: #1a3d6e;
      }
    </style>
  </defs>
  <title>0d56eade-a365-4746-b55c-82411b64f8b4</title>
  <g>
    <path class="cls-1" d="M47.212,67.156c-6.207,0-7.98.889-7.98,5.767V112.6c0,2,.663,14.407,2.658,16.626,2.439,2.659,9.53,4.211,16.626,4.211,16.842,0,29.255-11.527,29.255-30.808,0-19.952-16.4-35.468-40.559-35.468M54.523,5.318c-14.628,0-15.291,1.994-15.291,6.426v48.1c0,3.546,2.879,3.1,8.2,3.1a178.575,178.575,0,0,1,22.829,1.329C76.687,59.4,84,55.189,84,37.681,84,26.6,74.695,5.318,54.523,5.318m2.883,132.1c-9.31,0-18.619-2.216-28.372-2.216-9.309,0-14.184.886-21.276,0.886-2.217,0-3.769-.223-3.769-2.436s1.329-2.663,6.2-2.663c9.974,0,10.42-.441,10.42-3.763V25.267c0-17.508-3.55-19.5-9.753-19.5C0.884,5.764,0,5.54,0,2.881,0,1.329.662,1.108,4.43,1.108c6.873,0,13.743.222,21.5,0.222C30.586,1.329,41.227,0,61.172,0,89.99,0,102.4,14.85,102.4,30.586s-9.531,23.5-16.624,28.371c-4.213,2.884-9.09,5.321-9.09,5.985,0,0.443,4.213,1.551,8.647,3.767,10.415,5.321,23.5,12.857,23.5,32.142,0,24.823-20.613,36.569-51.424,36.569"/>
    <path class="cls-1" d="M149.8,59.248c-14.652,0-19.28,21.975-19.28,24.676,0,0.965,0,1.156,2.316,1.156,10.025,0,20.433-2.509,34.892-4.822,2.122-.384,2.316-0.771,2.316-1.927,0-4.819-11.374-19.083-20.243-19.083m29.688,23.131a299.391,299.391,0,0,1-46.266,6.749c-3.088.195-3.667,1.157-3.667,5.592,0,26.606,20.628,33.737,35.284,33.737,12.722,0,19.663-4.627,20.819-4.627a1.814,1.814,0,0,1,1.543,1.544c0,0.96-16.387,13.108-32.006,13.108-15.8,0-39.327-7.712-39.327-39.906,0-27.184,18.316-43.38,35.857-43.38,10.027,0,22.365,6.364,29.3,14.461,3.279,3.855,6.364,8.481,6.364,10.022,0,0.773-2.7,1.544-7.906,2.7"/>
    <path class="cls-1" d="M250.048,77.174c-2.7,0-5.012-7.9-14.653-7.9-11.18,0-15.422,4.627-15.422,12.723v39.716c0,9.446.578,9.446,14.844,9.446,5.012,0,5.2.579,5.2,2.315,0,2.123-.192,1.929-5.2,1.929-2.7,0-15.615-.965-21.785-0.965-6.555,0-13.108.965-15.807,0.965-4.436,0-4.823,0-4.823-1.929s0.194-2.315,4.823-2.315c7.9,0,8.481-.192,8.481-2.892V75.44c0-13.109.385-13.493-10.408-13.493-3.474,0-3.474.192-3.474-1.929,0-2.316-.193-2.894,3.087-2.894,6.553,0,10.216.384,14.073,0.384,3.083,0,6.745-.962,9.833-0.962,0.772,0,1.543.578,1.543,2.123,0,0.964-.386,5.205-0.386,5.783,0,1.734.192,3.083,0.964,3.083,2.892,0,11.952-10.027,21.01-10.027,3.474,0,12.339,4.244,12.339,9.256,0,1.927-3.083,10.409-4.24,10.409"/>
    <path class="cls-1" d="M341.237,136.169c-2.312,0-4.817-.192-6.552-0.192-2.312,0-8.1.192-10.793,0.192-3.475,0-5.21-4.823-13.306-14.075s-16.2-21.4-17.355-21.4c-0.77,0-3.469,1.929-6.747,4.048-3.083,1.929-5.783,3.281-5.783,5.016V121.9c0,9.058-.385,9.058,11.567,9.058,4.433,0,5.2.965,5.2,2.508,0,1.929-.962,1.929-5.2,1.929-2.892,0-11.758-.385-17.927-0.385-6.557,0-13.689.385-16.388,0.385-4.434,0-5.59-.194-5.59-1.929,0-1.544.964-2.508,5.59-2.508,6.553,0,8.29,0,8.29-2.892,0-5.589.578-62.654,0.578-103.332,0-13.686-1.543-15.422-6.748-15.422-7.9,0-8.674-.578-8.674-1.931,0-1.927.385-2.7,2.505-2.7,13.879,0,25.254-4.241,26.989-4.241,0.965,0,1.351.578,1.351,1.735,0,2.505-.386,10.605-0.386,16.774,0,29.3-1.157,50.9-1.157,82.318,0,0.773.193,1.352,0.773,1.352,4.819,0,24.873-17.735,31.041-23.523,7.519-7.131,9.252-10.408,9.252-14.456,0-3.084-.579-3.47-9.06-3.47-2.892,0-3.856-.386-3.856-2.122,0-1.545.964-1.931,3.471-1.931,1.925,0,5.59.579,7.9,0.579,2.506,0,13.689-.579,16-0.579,1.544,0,2.315.195,2.315,0.773,0,1.738-6.552,10.027-12.529,15.81-9.642,9.448-21.594,17.928-21.594,19.279,0,1.735,3.469,5.4,16.964,21.593,6.558,7.9,12.725,17.348,19.279,17.348,4.625,0,6.169.967,6.169,2.508,0,1.348-1.35,1.735-5.592,1.735"/>
    <path class="cls-1" d="M374.592,59.248c-14.65,0-19.275,21.975-19.275,24.676,0,0.965,0,1.156,2.312,1.156,10.021,0,20.431-2.509,34.893-4.822,2.119-.384,2.312-0.771,2.312-1.927,0-4.819-11.373-19.083-20.243-19.083m29.691,23.131a299.411,299.411,0,0,1-46.268,6.749c-3.085.195-3.662,1.157-3.662,5.592,0,26.606,20.625,33.737,35.277,33.737,12.723,0,19.666-4.627,20.825-4.627a1.815,1.815,0,0,1,1.54,1.544c0,0.96-16.387,13.108-32,13.108-15.81,0-39.329-7.712-39.329-39.906,0-27.184,18.314-43.38,35.858-43.38,10.025,0,22.362,6.364,29.306,14.461,3.275,3.855,6.36,8.481,6.36,10.022,0,0.773-2.7,1.544-7.9,2.7"/>
    <path class="cls-1" d="M446.733,135.4c-2.894,0-7.131-.387-10.606-0.387-6.553,0-16.77.387-19.47,0.387-4.435,0-4.823-.387-4.823-1.927,0-1.35.194-2.508,4.823-2.508,7.9,0,11.181.192,11.181-3.277V21.46c0-12.145-1.156-12.145-9.829-12.145-3.471,0-5.4-.383-5.4-2.509,0-2.312,1.544-2.119,4.823-2.312C432.467,3.53,439.792.252,440.95,0.252c0.964,0,1.925.964,1.925,3.083,0,2.313-.96,9.257-0.96,15.039,0,73.452-.964,88.68-0.964,94.274,0,16,1.348,18.121,4.819,18.121,9.637,0,9.254,1.154,9.254,2.7,0,1.927-1.352,1.927-8.29,1.927"/>
    <path class="cls-1" d="M485.79,59.248c-14.65,0-19.279,21.975-19.279,24.676,0,0.965,0,1.156,2.312,1.156,10.029,0,20.437-2.509,34.9-4.822,2.119-.384,2.316-0.771,2.316-1.927,0-4.819-11.381-19.083-20.247-19.083m29.691,23.131a299.362,299.362,0,0,1-46.27,6.749c-3.083.195-3.664,1.157-3.664,5.592,0,26.606,20.631,33.737,35.281,33.737,12.725,0,19.666-4.627,20.82-4.627a1.812,1.812,0,0,1,1.542,1.544c0,0.96-16.385,13.108-32,13.108-15.812,0-39.333-7.712-39.333-39.906,0-27.184,18.318-43.38,35.862-43.38,10.025,0,22.366,6.364,29.3,14.461,3.277,3.855,6.36,8.481,6.36,10.022,0,0.773-2.7,1.544-7.9,2.7"/>
    <path class="cls-1" d="M602.811,61.754c-4.242,0-12.725,23.135-27.952,60.149-12.152,29.493-20.825,45.112-26.991,57.837-2.119,4.242-4.435,4.433-8.677,5.012-5.783.771-7.131,2.312-11.373,2.312-3.281,0-5.206-.962-5.206-1.927,0-1.156,9.06-2.312,15.614-10.6,6.942-8.675,23.52-31.424,23.52-37.206,0-2.123-15.421-37.791-26.027-62.852-4.819-11.566-6.171-12.53-9.637-12.53-3.858,0-4.048-.192-4.048-1.927s0.577-2.7,4.048-2.7c5.4,0,6.748.384,11.373,0.384,5.4,0,12.144-.578,18.314-0.578,4.048,0,4.819.772,4.819,2.895,0,1.735-.771,1.927-4.819,1.927-4.625,0-5.783,1.157-5.783,5.59,0,5.592,5.012,12.338,16.579,42.029,1.546,4.048,3.858,7.325,4.629,7.325,1.348,0,2.506-2.7,5.589-11.762C581.409,91.25,588.351,71.2,588.351,68.5c0-5.782,0-6.938-6.554-6.938-5.973,0-6.748,0-6.748-1.929,0-2.509.577-2.509,4.048-2.509,5.206,0,8.673.385,13.883,0.385,2.893,0,8.1-.77,10.8-0.77,3.083,0,4.048.192,4.048,2.314,0,1.735-2.7,2.7-5.012,2.7"/>
    <path class="cls-1" d="M26.256,184.241c-6.321,0-9.52-3.574-9.52-9.369V158.055h4.476V175.1c0,3.236,1.357,5.342,5.045,5.342,3.649,0,5-2.106,5-5.305v-17.08h4.479v16.779c0,5.833-3.2,9.406-9.481,9.406"/>
    <polygon class="cls-1" points="57.442 183.828 46.569 166.52 46.495 166.52 46.495 183.828 42.016 183.828 42.016 158.467 46.342 158.016 56.84 174.987 56.954 174.987 56.954 158.053 61.431 158.053 61.431 183.828 57.442 183.828"/>
    <rect class="cls-1" x="67.82" y="158.055" width="4.477" height="25.773"/>
    <path class="cls-1" d="M90.505,183.828H85.577L76.7,158.053h4.738l4.93,14.374s0.49,1.5,1.731,5.907h0.226c1.281-4.4,1.768-5.87,1.768-5.87l4.928-14.411h4.4Z"/>
    <polygon class="cls-1" points="119.434 183.828 103.782 183.828 103.782 158.016 119.132 158.016 119.132 161.817 108.259 161.817 108.259 168.927 117.929 168.927 117.929 172.728 108.259 172.728 108.259 180.028 119.772 180.028 119.434 183.828"/>
    <path class="cls-1" d="M133.877,161.891h-3.689v7.865h3.763c2.709,0,3.951-1.579,3.951-4.025,0-2.409-.978-3.84-4.025-3.84m5.342,21.938-3.574-7.263c-0.753-1.542-1.694-3.046-3.313-3.046h-2.144v10.309h-4.477V158.053h8.278c5.681,0,8.5,3.162,8.5,7.638a7.05,7.05,0,0,1-4.854,7v0.074a4.066,4.066,0,0,1,1.581,1.768l4.93,9.3h-4.93Z"/>
    <path class="cls-1" d="M155.731,184.241a14.782,14.782,0,0,1-8.5-2.858l1.879-3.312a12.8,12.8,0,0,0,6.622,2.37c2.972,0,4.44-1.657,4.44-3.574,0-4.817-11.4-3.273-11.4-11.927,0-4.553,3.8-7.3,8.353-7.3a14.386,14.386,0,0,1,7.486,2.294l-1.617,3.236a12.408,12.408,0,0,0-5.869-1.729c-2.485,0-3.763,1.391-3.763,3.31,0,5.833,11.4,3.2,11.4,11.964,0,4.363-4.1,7.525-9.031,7.525"/>
    <rect class="cls-1" x="170.1" y="158.055" width="4.478" height="25.773"/>
    <polygon class="cls-1" points="197.525 161.854 191.016 161.854 191.016 183.827 186.54 183.827 186.54 161.891 179.729 161.891 179.729 158.053 197.863 158.053 197.525 161.854"/>
    <path class="cls-1" d="M213.4,172.8v11.026h-4.479V172.8l-8.126-14.749h5.042l3.423,7.339s0.49,0.938,1.845,3.8h0.111c1.279-2.861,1.731-3.8,1.731-3.8l3.649-7.339h4.93Z"/>
    <path class="cls-1" d="M248.006,161.442c-4.438,0-6.623,3.838-6.623,9.444,0,5.643,2.185,9.555,6.623,9.555,4.4,0,6.584-3.912,6.584-9.518s-2.144-9.481-6.584-9.481m0,22.8c-7.789,0-11.212-5.944-11.212-13.318,0-7.751,3.461-13.281,11.212-13.281s11.212,5.53,11.212,13.281c0,7.374-3.424,13.318-11.212,13.318"/>
    <polygon class="cls-1" points="269.446 161.817 269.446 168.929 278.929 168.929 278.929 172.728 269.446 172.728 269.446 183.827 264.97 183.827 264.97 158.016 280.018 158.016 280.018 161.817 269.446 161.817"/>
    <path class="cls-1" d="M308.268,184.241c-7.937,0-11.4-5.379-11.4-13.281,0-7.75,3.8-13.318,11.551-13.318a12.927,12.927,0,0,1,8.576,3.312l-2.329,3.007a9.192,9.192,0,0,0-6.247-2.519c-4.552,0-6.96,3.423-6.96,9.481,0,6.1,2.256,9.518,7.034,9.518a10.336,10.336,0,0,0,6.812-2.972l2.3,2.935a13.83,13.83,0,0,1-9.332,3.838"/>
    <path class="cls-1" d="M333.473,168.738s-0.3-.824-2.071-6.166h-0.074c-1.731,5.342-2.032,6.166-2.032,6.166l-1.993,5.684h8.164Zm5.266,15.091-2.143-6.21H326.212l-2.146,6.21h-4.178l9.069-25.4,5.229-.414,9.145,25.812h-4.592Z"/>
    <polygon class="cls-1" points="362.214 183.828 346.975 183.828 346.975 158.053 351.451 158.053 351.451 180.028 362.552 180.028 362.214 183.828"/>
    <rect class="cls-1" x="366.913" y="158.055" width="4.477" height="25.773"/>
    <polygon class="cls-1" points="381.695 161.817 381.695 168.929 391.175 168.929 391.175 172.728 381.695 172.728 381.695 183.827 377.216 183.827 377.216 158.016 392.268 158.016 392.268 161.817 381.695 161.817"/>
    <path class="cls-1" d="M406.373,161.442c-4.442,0-6.624,3.838-6.624,9.444,0,5.643,2.183,9.555,6.624,9.555,4.4,0,6.583-3.912,6.583-9.518s-2.143-9.481-6.583-9.481m0,22.8c-7.789,0-11.214-5.944-11.214-13.318,0-7.751,3.461-13.281,11.214-13.281s11.21,5.53,11.21,13.281c0,7.374-3.423,13.318-11.21,13.318"/>
    <path class="cls-1" d="M429.62,161.891h-3.689v7.865h3.763c2.711,0,3.952-1.579,3.952-4.025,0-2.409-.977-3.84-4.026-3.84m5.341,21.938-3.574-7.263c-0.75-1.542-1.693-3.046-3.311-3.046h-2.146v10.309h-4.477V158.053h8.279c5.681,0,8.5,3.162,8.5,7.638a7.047,7.047,0,0,1-4.852,7v0.074a4.041,4.041,0,0,1,1.579,1.768l4.93,9.3h-4.93Z"/>
    <polygon class="cls-1" points="458.811 183.828 447.941 166.52 447.863 166.52 447.863 183.828 443.386 183.828 443.386 158.467 447.715 158.016 458.209 174.987 458.325 174.987 458.325 158.053 462.801 158.053 462.801 183.828 458.811 183.828"/>
    <rect class="cls-1" x="468.436" y="158.055" width="4.477" height="25.773"/>
    <path class="cls-1" d="M490.147,168.738s-0.3-.824-2.073-6.166H488c-1.731,5.342-2.032,6.166-2.032,6.166l-2,5.684h8.166Zm5.264,15.091-2.143-6.21H482.884l-2.143,6.21h-4.18l9.069-25.4,5.231-.414L500,183.828h-4.592Z"/>
  </g>
</svg>
